<svg width="104" height="14" viewBox="0 0 104 14" fill="none" xmlns="http://www.w3.org/2000/svg">
    <path d="M1.62541 9.02062C1.33815 9.02062 1.07906 8.96851 0.848159 8.86431C0.619074 8.7601 0.429989 8.61136 0.280902 8.41811C0.133633 8.22295 0.0399989 7.9918 0 7.72465L0.6818 7.61665C0.73998 7.85917 0.859068 8.04675 1.03906 8.17937C1.22088 8.312 1.42996 8.37832 1.66632 8.37832C1.80632 8.37832 1.93813 8.35558 2.06176 8.31011C2.1854 8.26464 2.28539 8.19832 2.36175 8.11117C2.43993 8.02401 2.47902 7.91696 2.47902 7.79002C2.47902 7.73317 2.46993 7.68107 2.45175 7.6337C2.43357 7.58444 2.4063 7.54086 2.36994 7.50297C2.33539 7.46508 2.28994 7.43097 2.23358 7.40066C2.17903 7.36845 2.1154 7.34097 2.04267 7.31824L1.02815 7.00561C0.940884 6.97909 0.846341 6.94403 0.744525 6.90046C0.644528 6.85498 0.549076 6.79341 0.45817 6.71572C0.369081 6.63615 0.295447 6.53573 0.237266 6.41447C0.180904 6.29131 0.152723 6.13974 0.152723 5.95974C0.152723 5.69638 0.216358 5.47565 0.343627 5.29755C0.472715 5.11755 0.645437 4.98303 0.861795 4.89398C1.07997 4.80493 1.32178 4.76135 1.58723 4.76324C1.85631 4.76514 2.09631 4.81345 2.30721 4.90819C2.51811 5.00103 2.69447 5.1365 2.83629 5.3146C2.9781 5.4927 3.0781 5.70775 3.13628 5.95974L2.42993 6.08763C2.40084 5.94364 2.34448 5.82143 2.26085 5.72101C2.17903 5.6187 2.07813 5.54101 1.95813 5.48796C1.83995 5.43491 1.71359 5.40649 1.57905 5.4027C1.44814 5.40081 1.32633 5.42165 1.2136 5.46523C1.1027 5.50691 1.0127 5.56754 0.943611 5.64712C0.87634 5.72669 0.842705 5.81953 0.842705 5.92564C0.842705 6.02606 0.871795 6.10847 0.929975 6.17289C0.988155 6.23542 1.05997 6.28563 1.14542 6.32352C1.23269 6.35952 1.32087 6.38984 1.40996 6.41447L2.11358 6.61909C2.20994 6.64562 2.31812 6.68162 2.43812 6.72709C2.55811 6.77257 2.67356 6.83604 2.78447 6.91751C2.89538 6.99898 2.98628 7.10603 3.05719 7.23866C3.12992 7.37129 3.16628 7.53992 3.16628 7.74454C3.16628 7.95675 3.12355 8.14338 3.0381 8.30442C2.95447 8.46358 2.84083 8.59621 2.6972 8.70231C2.55357 8.80841 2.38903 8.88799 2.20358 8.94104C2.01995 8.99409 1.82722 9.02062 1.62541 9.02062Z"
          fill="#9A9A9A"/>
    <path d="M5.09564 9.02062C4.79747 9.02062 4.53566 8.95336 4.31021 8.81883C4.08476 8.68431 3.9084 8.49768 3.78113 8.25895C3.65568 8.02022 3.59296 7.74549 3.59296 7.43476C3.59296 7.0994 3.65477 6.80856 3.77841 6.56225C3.90204 6.31405 4.07385 6.12174 4.29385 5.98532C4.51384 5.8489 4.76838 5.78069 5.05746 5.78069C5.36291 5.78069 5.62199 5.85553 5.83472 6.00521C6.04926 6.153 6.20834 6.36236 6.31198 6.6333C6.41561 6.90425 6.4547 7.2235 6.42924 7.59107H5.77744V7.34097C5.77563 7.00751 5.71926 6.76404 5.60836 6.61057C5.49745 6.4571 5.32291 6.38036 5.08474 6.38036C4.81565 6.38036 4.61566 6.46752 4.48475 6.64183C4.35385 6.81425 4.28839 7.06719 4.28839 7.40066C4.28839 7.71139 4.35385 7.95201 4.48475 8.12253C4.61566 8.29306 4.80656 8.37832 5.05746 8.37832C5.21928 8.37832 5.35837 8.34137 5.47473 8.26748C5.5929 8.19169 5.68381 8.08275 5.74745 7.94064L6.39652 8.14527C6.28379 8.4219 6.10925 8.63694 5.8729 8.79041C5.63836 8.94388 5.37927 9.02062 5.09564 9.02062ZM4.08113 7.59107V7.07382H6.10744V7.59107H4.08113Z"
          fill="#9A9A9A"/>
    <path d="M8.31681 9.02062C8.01318 9.02062 7.7541 8.95051 7.53956 8.81031C7.32502 8.66821 7.16048 8.47495 7.04593 8.23053C6.93321 7.98612 6.87594 7.70949 6.87412 7.40066C6.87594 7.08614 6.93503 6.80762 7.05139 6.5651C7.16957 6.32068 7.33683 6.12932 7.55319 5.991C7.76955 5.8508 8.02682 5.78069 8.32499 5.78069C8.65953 5.78069 8.94225 5.8688 9.17315 6.045C9.40587 6.21931 9.55768 6.45805 9.62859 6.7612L8.97406 6.94593C8.92316 6.78109 8.83861 6.6532 8.72043 6.56225C8.60225 6.46941 8.46771 6.42299 8.31681 6.42299C8.1459 6.42299 8.005 6.46562 7.89409 6.55089C7.78319 6.63425 7.70137 6.74983 7.64864 6.89761C7.59592 7.0454 7.56956 7.21308 7.56956 7.40066C7.56956 7.69244 7.63228 7.92833 7.75773 8.10832C7.88318 8.28832 8.06954 8.37832 8.31681 8.37832C8.49135 8.37832 8.62862 8.33663 8.72862 8.25327C8.83043 8.1699 8.90679 8.04959 8.9577 7.89233L9.62859 8.04864C9.53769 8.36127 9.3786 8.60189 9.15133 8.77052C8.92406 8.93725 8.64589 9.02062 8.31681 9.02062Z"
          fill="#9A9A9A"/>
    <path d="M11.2796 9.02346C11.0614 9.02346 10.8814 8.98557 10.7396 8.90978C10.5978 8.83399 10.4851 8.73736 10.4015 8.61989C10.3178 8.50242 10.256 8.37737 10.216 8.24474C10.176 8.11211 10.1496 7.98706 10.1369 7.86959C10.126 7.75023 10.1206 7.6536 10.1206 7.5797V5.86595H10.786V7.34382C10.786 7.43855 10.7924 7.5456 10.8051 7.66497C10.8178 7.78244 10.8469 7.89612 10.8924 8.00601C10.9396 8.11401 11.0087 8.20306 11.0996 8.27316C11.1923 8.34327 11.3169 8.37832 11.4732 8.37832C11.5569 8.37832 11.6396 8.36411 11.7214 8.33569C11.8032 8.30727 11.8769 8.25895 11.9423 8.19074C12.0096 8.12064 12.0632 8.02496 12.1032 7.9037C12.1432 7.78244 12.1632 7.62897 12.1632 7.44329L12.5532 7.61665C12.5532 7.87812 12.5041 8.11496 12.4059 8.32716C12.3096 8.53937 12.1669 8.70894 11.9778 8.83589C11.7887 8.96094 11.556 9.02346 11.2796 9.02346ZM12.2423 8.93536V7.98327H12.1632V5.86595H12.8232V8.93536H12.2423Z"
          fill="#9A9A9A"/>
    <path d="M13.5894 8.93536V5.86595H14.1703V6.61341L14.0994 6.51678C14.1358 6.41447 14.184 6.32163 14.2439 6.23826C14.3058 6.153 14.3794 6.0829 14.4649 6.02795C14.5376 5.97679 14.6176 5.93701 14.7048 5.90858C14.7939 5.87827 14.8848 5.86027 14.9776 5.85459C15.0703 5.84701 15.1603 5.8508 15.2476 5.86595V6.50541C15.1603 6.47889 15.0594 6.47036 14.9448 6.47983C14.8321 6.48931 14.7303 6.52247 14.6394 6.57931C14.5485 6.63046 14.4739 6.69583 14.4158 6.77541C14.3594 6.85498 14.3176 6.94593 14.2903 7.04824C14.263 7.14866 14.2494 7.25761 14.2494 7.37508V8.93536H13.5894Z"
          fill="#9A9A9A"/>
    <path d="M17.0538 9.02062C16.7556 9.02062 16.4938 8.95336 16.2683 8.81883C16.0429 8.68431 15.8665 8.49768 15.7393 8.25895C15.6138 8.02022 15.5511 7.74549 15.5511 7.43476C15.5511 7.0994 15.6129 6.80856 15.7365 6.56225C15.8602 6.31405 16.032 6.12174 16.252 5.98532C16.472 5.8489 16.7265 5.78069 17.0156 5.78069C17.321 5.78069 17.5801 5.85553 17.7928 6.00521C18.0074 6.153 18.1665 6.36236 18.2701 6.6333C18.3737 6.90425 18.4128 7.2235 18.3874 7.59107H17.7356V7.34097C17.7338 7.00751 17.6774 6.76404 17.5665 6.61057C17.4556 6.4571 17.281 6.38036 17.0429 6.38036C16.7738 6.38036 16.5738 6.46752 16.4429 6.64183C16.312 6.81425 16.2465 7.06719 16.2465 7.40066C16.2465 7.71139 16.312 7.95201 16.4429 8.12253C16.5738 8.29306 16.7647 8.37832 17.0156 8.37832C17.1774 8.37832 17.3165 8.34137 17.4329 8.26748C17.551 8.19169 17.6419 8.08275 17.7056 7.94064L18.3546 8.14527C18.2419 8.4219 18.0674 8.63694 17.831 8.79041C17.5965 8.94388 17.3374 9.02062 17.0538 9.02062ZM16.0393 7.59107V7.07382H18.0656V7.59107H16.0393Z"
          fill="#9A9A9A"/>
    <path d="M20.1768 9.02062C19.9059 9.02062 19.6695 8.94957 19.4677 8.80747C19.2659 8.66536 19.1095 8.4721 18.9986 8.22769C18.8877 7.98327 18.8323 7.7076 18.8323 7.40066C18.8323 7.08993 18.8877 6.8133 18.9986 6.57078C19.1113 6.32636 19.2704 6.13405 19.4759 5.99385C19.6813 5.85174 19.9231 5.78069 20.2013 5.78069C20.4813 5.78069 20.7158 5.85174 20.9049 5.99385C21.0958 6.13405 21.2404 6.32636 21.3385 6.57078C21.4367 6.8152 21.4858 7.09182 21.4858 7.40066C21.4858 7.7057 21.4367 7.98138 21.3385 8.22769C21.2404 8.4721 21.094 8.66536 20.8995 8.80747C20.7049 8.94957 20.464 9.02062 20.1768 9.02062ZM20.2777 8.40674C20.454 8.40674 20.5958 8.36505 20.7031 8.28169C20.8122 8.19643 20.8913 8.07801 20.9404 7.92643C20.9913 7.77486 21.0167 7.5996 21.0167 7.40066C21.0167 7.19982 20.9913 7.02456 20.9404 6.87488C20.8913 6.7233 20.814 6.60583 20.7086 6.52247C20.6031 6.4372 20.4668 6.39457 20.2995 6.39457C20.1231 6.39457 19.9777 6.44005 19.8631 6.53099C19.7486 6.62004 19.664 6.7413 19.6095 6.89477C19.555 7.04635 19.5277 7.21498 19.5277 7.40066C19.5277 7.58823 19.554 7.75875 19.6068 7.91222C19.6613 8.0638 19.744 8.18411 19.8549 8.27316C19.9659 8.36221 20.1068 8.40674 20.2777 8.40674ZM21.0167 8.93536V6.78109H20.9349V4.84282H21.5976V8.93536H21.0167Z"
          fill="#9A9A9A"/>
    <path d="M24.8696 9.02062C24.5824 9.02062 24.3415 8.94957 24.1469 8.80747C23.9524 8.66536 23.806 8.4721 23.7078 8.22769C23.6097 7.98138 23.5606 7.7057 23.5606 7.40066C23.5606 7.09182 23.6097 6.8152 23.7078 6.57078C23.806 6.32636 23.9497 6.13405 24.1387 5.99385C24.3296 5.85174 24.5651 5.78069 24.8451 5.78069C25.1233 5.78069 25.3642 5.85174 25.5678 5.99385C25.7732 6.13405 25.9323 6.32636 26.0451 6.57078C26.1578 6.8133 26.2141 7.08993 26.2141 7.40066C26.2141 7.7076 26.1587 7.98327 26.0478 8.22769C25.9369 8.4721 25.7805 8.66536 25.5787 8.80747C25.3769 8.94957 25.1405 9.02062 24.8696 9.02062ZM23.4488 8.93536V4.84282H24.1115V6.78109H24.0297V8.93536H23.4488ZM24.7687 8.40674C24.9396 8.40674 25.0805 8.36221 25.1914 8.27316C25.3023 8.18411 25.3842 8.0638 25.4369 7.91222C25.4914 7.75875 25.5187 7.58823 25.5187 7.40066C25.5187 7.21498 25.4914 7.04635 25.4369 6.89477C25.3823 6.7413 25.2978 6.62004 25.1833 6.53099C25.0687 6.44005 24.9233 6.39457 24.7469 6.39457C24.5796 6.39457 24.4433 6.4372 24.3378 6.52247C24.2324 6.60583 24.1542 6.7233 24.1033 6.87488C24.0542 7.02456 24.0297 7.19982 24.0297 7.40066C24.0297 7.5996 24.0542 7.77486 24.1033 7.92643C24.1542 8.07801 24.2333 8.19643 24.3406 8.28169C24.4496 8.36505 24.5924 8.40674 24.7687 8.40674Z"
          fill="#9A9A9A"/>
    <path d="M27.0055 10.2995L27.5727 8.67673L27.5836 9.15419L26.2991 5.86595H26.9836L27.8945 8.29874H27.72L28.6063 5.86595H29.2636L27.6218 10.2995H27.0055Z"
          fill="#9A9A9A"/>
    <path d="M103.61 7.13587C103.61 3.6403 100.778 0.808594 97.2824 0.808594C93.7868 0.808594 90.9551 3.6403 90.9551 7.13587C90.9551 10.6314 93.7868 13.4631 97.2824 13.4631C100.771 13.4631 103.61 10.6314 103.61 7.13587Z"
          fill="#9A9A9A"/>
    <path d="M32.4277 9.43073V4.84817H33.8492C34.3839 4.84817 34.7358 4.8694 34.8983 4.91898C35.1487 4.98981 35.3586 5.13856 35.5278 5.37229C35.697 5.59894 35.785 5.89643 35.785 6.26473C35.785 6.54805 35.7376 6.78178 35.6361 6.97302C35.5413 7.16425 35.4127 7.313 35.2638 7.42633C35.1149 7.53257 34.9592 7.60339 34.8035 7.6388C34.5937 7.6813 34.2891 7.70252 33.8898 7.70252H33.3144V9.43073H32.4277ZM33.3144 5.62727V6.93052H33.8018C34.147 6.93052 34.3839 6.90925 34.499 6.85967C34.614 6.81009 34.7088 6.73925 34.7765 6.63301C34.8442 6.53385 34.878 6.41344 34.878 6.27887C34.878 6.10888 34.8306 5.97434 34.7359 5.8681C34.6411 5.76186 34.526 5.691 34.3771 5.66267C34.2688 5.64142 34.059 5.63435 33.7409 5.63435H33.3144V5.62727ZM42.2695 9.43073H41.3083L40.9293 8.38958H39.1761L38.8174 9.43073H37.8766L39.5823 4.84817H40.5163L42.2695 9.43073ZM40.6382 7.61753L40.0358 5.91768L39.4469 7.61753H40.6382ZM45.5929 9.43073V7.50423L43.9887 4.84817H45.0243L46.0532 6.66137L47.0617 4.84817H48.0838L46.4729 7.51132V9.43073H45.5929ZM50.5612 7.94336L51.4208 7.85837C51.4749 8.16293 51.5764 8.3825 51.7321 8.52415C51.8946 8.66581 52.1044 8.73663 52.3752 8.73663C52.6595 8.73663 52.8761 8.67287 53.0182 8.55247C53.1603 8.42498 53.2348 8.27623 53.2348 8.10625C53.2348 8.00001 53.201 7.90792 53.14 7.83001C53.0791 7.7521 52.9776 7.68837 52.8219 7.63171C52.7204 7.5963 52.4835 7.52545 52.1112 7.43337C51.6374 7.31296 51.3057 7.15718 51.1162 6.98011C50.8454 6.72512 50.71 6.42053 50.71 6.05931C50.71 5.82557 50.771 5.60602 50.8996 5.4077C51.0282 5.2023 51.2109 5.0465 51.4479 4.94025C51.6848 4.83401 51.9758 4.77732 52.3143 4.77732C52.8625 4.77732 53.2754 4.90483 53.5529 5.15273C53.8304 5.40771 53.9794 5.7406 53.9929 6.16557L53.1062 6.20806C53.0656 5.97433 52.9844 5.80436 52.8625 5.69812C52.7407 5.59188 52.5512 5.54227 52.3007 5.54227C52.0435 5.54227 51.8404 5.59892 51.6983 5.70517C51.6035 5.77599 51.5561 5.86809 51.5561 5.9885C51.5561 6.09474 51.5968 6.18682 51.6847 6.26473C51.793 6.36389 52.0638 6.46305 52.497 6.56929C52.9302 6.67553 53.2416 6.78884 53.4514 6.90216C53.6612 7.01549 53.8169 7.17133 53.9387 7.36965C54.0538 7.56797 54.1147 7.80876 54.1147 8.09916C54.1147 8.36122 54.0471 8.60915 53.9049 8.8358C53.7628 9.06245 53.5665 9.23241 53.316 9.34574C53.0588 9.45906 52.7407 9.50863 52.3616 9.50863C51.8066 9.50863 51.3802 9.37406 51.0891 9.11199C50.7981 8.84285 50.6221 8.45332 50.5612 7.94336ZM57.1336 9.43073V4.84817H60.3826V5.62018H58.0203V6.63301H60.2201V7.40506H58.0203V8.65164H60.4638V9.42364H57.1336V9.43073ZM63.503 9.43073V4.88358H64.3897V8.65873H66.5895V9.43073H63.503ZM69.4798 9.43073V4.84817H72.7288V5.62018H70.3665V6.63301H72.5663V7.40506H70.3665V8.65164H72.81V9.42364H69.4798V9.43073ZM78.6311 7.74502L79.4907 8.02835C79.3621 8.53123 79.1388 8.89954 78.8342 9.14744C78.5296 9.38826 78.1437 9.50863 77.6699 9.50863C77.0878 9.50863 76.6072 9.30327 76.2349 8.88538C75.8627 8.4675 75.6731 7.90085 75.6731 7.1784C75.6731 6.41346 75.8627 5.82558 76.2349 5.40061C76.614 4.97564 77.1081 4.76318 77.7173 4.76318C78.252 4.76318 78.6852 4.92605 79.0237 5.25895C79.22 5.45726 79.3689 5.7335 79.4704 6.1018L78.5972 6.32137C78.5431 6.08055 78.4348 5.89641 78.2723 5.76184C78.1099 5.62727 77.9068 5.55645 77.6767 5.55645C77.3518 5.55645 77.0878 5.67683 76.8848 5.92473C76.6817 6.16555 76.5802 6.56221 76.5802 7.10759C76.5802 7.68838 76.6817 8.09918 76.878 8.34708C77.0743 8.59498 77.3383 8.71536 77.6564 8.71536C77.8933 8.71536 78.0963 8.63748 78.2656 8.48166C78.4348 8.32583 78.5566 8.08499 78.6311 7.74502ZM83.4978 9.43073V5.62018H82.1982V4.84817H85.6773V5.62018H84.3778V9.43073H83.4978ZM88.4864 9.43073V4.84817H89.3731V9.43073H88.4864Z"
          fill="#9A9A9A"/>
    <path d="M92.5371 7.16781C92.5371 6.69965 92.6019 6.30953 92.7314 5.99033C92.8286 5.75625 92.9582 5.54343 93.1201 5.35901C93.2885 5.17458 93.4699 5.0327 93.6643 4.94758C93.9234 4.82699 94.2279 4.76318 94.5647 4.76318C95.1801 4.76318 95.6789 4.97595 96.0482 5.39446C96.4174 5.81297 96.6053 6.39466 96.6053 7.14656C96.6053 7.88427 96.4239 8.46594 96.0547 8.88445C95.6854 9.30296 95.1931 9.50863 94.5777 9.50863C93.9558 9.50863 93.457 9.30296 93.0877 8.88445C92.7185 8.46594 92.5371 7.89843 92.5371 7.16781ZM93.4051 7.13236C93.4051 7.65017 93.5153 8.04739 93.7355 8.31694C93.9558 8.58649 94.2343 8.71417 94.5712 8.71417C94.908 8.71417 95.1866 8.5794 95.4004 8.31694C95.6206 8.04739 95.7243 7.65016 95.7243 7.11816C95.7243 6.59324 95.6206 6.20313 95.4069 5.94067C95.1996 5.68531 94.921 5.55054 94.5712 5.55054C94.2214 5.55054 93.9428 5.68531 93.729 5.94777C93.5153 6.21023 93.4051 6.60744 93.4051 7.13236ZM97.9139 9.43061V4.8412H98.7366L100.453 7.90556V4.8412H101.237V9.43061H100.388L98.6977 6.43722V9.43061H97.9139Z"
          fill="white"/>
</svg>
