<svg width="104" height="14" viewBox="0 0 104 14" fill="none" xmlns="http://www.w3.org/2000/svg">
    <g opacity="0.6">
        <path d="M1.62541 8.57384C1.33815 8.57384 1.07906 8.52174 0.848159 8.41753C0.619074 8.31332 0.429989 8.16459 0.280902 7.97133C0.133633 7.77618 0.0399989 7.54502 0 7.27787L0.6818 7.16987C0.73998 7.41239 0.859068 7.59997 1.03906 7.7326C1.22088 7.86523 1.42996 7.93154 1.66632 7.93154C1.80632 7.93154 1.93813 7.9088 2.06176 7.86333C2.1854 7.81786 2.28539 7.75154 2.36175 7.66439C2.43993 7.57723 2.47902 7.47018 2.47902 7.34324C2.47902 7.2864 2.46993 7.23429 2.45175 7.18693C2.43357 7.13766 2.4063 7.09409 2.36994 7.05619C2.33539 7.0183 2.28994 6.98419 2.23358 6.95388C2.17903 6.92167 2.1154 6.8942 2.04267 6.87146L1.02815 6.55883C0.940884 6.53231 0.846341 6.49726 0.744525 6.45368C0.644528 6.40821 0.549076 6.34663 0.45817 6.26895C0.369081 6.18937 0.295447 6.08895 0.237266 5.96769C0.180904 5.84454 0.152723 5.69296 0.152723 5.51296C0.152723 5.2496 0.216358 5.02887 0.343627 4.85077C0.472715 4.67077 0.645437 4.53625 0.861795 4.4472C1.07997 4.35815 1.32178 4.31457 1.58723 4.31647C1.85631 4.31836 2.09631 4.36667 2.30721 4.46141C2.51811 4.55425 2.69447 4.68972 2.83629 4.86782C2.9781 5.04592 3.0781 5.26097 3.13628 5.51296L2.42993 5.64086C2.40084 5.49686 2.34448 5.37465 2.26085 5.27423C2.17903 5.17192 2.07813 5.09424 1.95813 5.04119C1.83995 4.98813 1.71359 4.95971 1.57905 4.95592C1.44814 4.95403 1.32633 4.97487 1.2136 5.01845C1.1027 5.06013 1.0127 5.12076 0.943611 5.20034C0.87634 5.27992 0.842705 5.37276 0.842705 5.47886C0.842705 5.57928 0.871795 5.6617 0.929975 5.72612C0.988155 5.78864 1.05997 5.83885 1.14542 5.87675C1.23269 5.91274 1.32087 5.94306 1.40996 5.96769L2.11358 6.17232C2.20994 6.19884 2.31812 6.23484 2.43812 6.28032C2.55811 6.32579 2.67356 6.38926 2.78447 6.47073C2.89538 6.5522 2.98628 6.65925 3.05719 6.79188C3.12992 6.92451 3.16628 7.09314 3.16628 7.29777C3.16628 7.50997 3.12355 7.6966 3.0381 7.85765C2.95447 8.0168 2.84083 8.14943 2.6972 8.25553C2.55357 8.36164 2.38903 8.44121 2.20358 8.49426C2.01995 8.54732 1.82722 8.57384 1.62541 8.57384Z"
              fill="#5F5F5F"/>
        <path d="M5.09564 8.57384C4.79747 8.57384 4.53566 8.50658 4.31021 8.37206C4.08476 8.23753 3.9084 8.05091 3.78113 7.81217C3.65568 7.57344 3.59296 7.29871 3.59296 6.98798C3.59296 6.65262 3.65477 6.36179 3.77841 6.11548C3.90204 5.86727 4.07385 5.67496 4.29385 5.53854C4.51384 5.40212 4.76838 5.33392 5.05746 5.33392C5.36291 5.33392 5.62199 5.40876 5.83472 5.55844C6.04926 5.70622 6.20834 5.91559 6.31198 6.18653C6.41561 6.45747 6.4547 6.77672 6.42924 7.14429H5.77744V6.8942C5.77563 6.56073 5.71926 6.31726 5.60836 6.16379C5.49745 6.01032 5.32291 5.93359 5.08474 5.93359C4.81565 5.93359 4.61566 6.02074 4.48475 6.19505C4.35385 6.36747 4.28839 6.62041 4.28839 6.95388C4.28839 7.26461 4.35385 7.50523 4.48475 7.67576C4.61566 7.84628 4.80656 7.93154 5.05746 7.93154C5.21928 7.93154 5.35837 7.89459 5.47473 7.8207C5.5929 7.74491 5.68381 7.63597 5.74745 7.49387L6.39652 7.69849C6.28379 7.97512 6.10925 8.19017 5.8729 8.34364C5.63836 8.49711 5.37927 8.57384 5.09564 8.57384ZM4.08113 7.14429V6.62704H6.10744V7.14429H4.08113Z"
              fill="#5F5F5F"/>
        <path d="M8.31681 8.57384C8.01318 8.57384 7.7541 8.50374 7.53956 8.36353C7.32502 8.22143 7.16048 8.02817 7.04593 7.78375C6.93321 7.53934 6.87594 7.26271 6.87412 6.95388C6.87594 6.63936 6.93503 6.36084 7.05139 6.11832C7.16957 5.8739 7.33683 5.68254 7.55319 5.54423C7.76955 5.40402 8.02682 5.33392 8.32499 5.33392C8.65953 5.33392 8.94225 5.42202 9.17315 5.59823C9.40587 5.77254 9.55768 6.01127 9.62859 6.31442L8.97406 6.49915C8.92316 6.33431 8.83861 6.20642 8.72043 6.11548C8.60225 6.02264 8.46771 5.97622 8.31681 5.97622C8.1459 5.97622 8.005 6.01885 7.89409 6.10411C7.78319 6.18748 7.70137 6.30305 7.64864 6.45084C7.59592 6.59862 7.56956 6.7663 7.56956 6.95388C7.56956 7.24566 7.63228 7.48155 7.75773 7.66155C7.88318 7.84154 8.06954 7.93154 8.31681 7.93154C8.49135 7.93154 8.62862 7.88986 8.72862 7.80649C8.83043 7.72312 8.90679 7.60281 8.9577 7.44555L9.62859 7.60186C9.53769 7.91449 9.3786 8.15511 9.15133 8.32374C8.92406 8.49047 8.64589 8.57384 8.31681 8.57384Z"
              fill="#5F5F5F"/>
        <path d="M11.2796 8.57668C11.0614 8.57668 10.8814 8.53879 10.7396 8.463C10.5978 8.38721 10.4851 8.29058 10.4015 8.17311C10.3178 8.05564 10.256 7.93059 10.216 7.79796C10.176 7.66534 10.1496 7.54029 10.1369 7.42281C10.126 7.30345 10.1206 7.20682 10.1206 7.13293V5.41918H10.786V6.89704C10.786 6.99177 10.7924 7.09882 10.8051 7.21819C10.8178 7.33566 10.8469 7.44934 10.8924 7.55923C10.9396 7.66723 11.0087 7.75628 11.0996 7.82638C11.1923 7.89649 11.3169 7.93154 11.4732 7.93154C11.5569 7.93154 11.6396 7.91733 11.7214 7.88891C11.8032 7.86049 11.8769 7.81217 11.9423 7.74397C12.0096 7.67386 12.0632 7.57818 12.1032 7.45692C12.1432 7.33566 12.1632 7.18219 12.1632 6.99651L12.5532 7.16987C12.5532 7.43134 12.5041 7.66818 12.4059 7.88038C12.3096 8.09259 12.1669 8.26216 11.9778 8.38911C11.7887 8.51416 11.556 8.57668 11.2796 8.57668ZM12.2423 8.48858V7.5365H12.1632V5.41918H12.8232V8.48858H12.2423Z"
              fill="#5F5F5F"/>
        <path d="M13.5894 8.48858V5.41918H14.1703V6.16663L14.0994 6.07C14.1358 5.96769 14.184 5.87485 14.2439 5.79148C14.3058 5.70622 14.3794 5.63612 14.4649 5.58117C14.5376 5.53002 14.6176 5.49023 14.7048 5.46181C14.7939 5.43149 14.8848 5.41349 14.9776 5.40781C15.0703 5.40023 15.1603 5.40402 15.2476 5.41918V6.05864C15.1603 6.03211 15.0594 6.02358 14.9448 6.03306C14.8321 6.04253 14.7303 6.07569 14.6394 6.13253C14.5485 6.18369 14.4739 6.24905 14.4158 6.32863C14.3594 6.40821 14.3176 6.49915 14.2903 6.60147C14.263 6.70188 14.2494 6.81083 14.2494 6.9283V8.48858H13.5894Z"
              fill="#5F5F5F"/>
        <path d="M17.0538 8.57384C16.7556 8.57384 16.4938 8.50658 16.2683 8.37206C16.0429 8.23753 15.8665 8.05091 15.7393 7.81217C15.6138 7.57344 15.5511 7.29871 15.5511 6.98798C15.5511 6.65262 15.6129 6.36179 15.7365 6.11548C15.8602 5.86727 16.032 5.67496 16.252 5.53854C16.472 5.40212 16.7265 5.33392 17.0156 5.33392C17.321 5.33392 17.5801 5.40876 17.7928 5.55844C18.0074 5.70622 18.1665 5.91559 18.2701 6.18653C18.3737 6.45747 18.4128 6.77672 18.3874 7.14429H17.7356V6.8942C17.7338 6.56073 17.6774 6.31726 17.5665 6.16379C17.4556 6.01032 17.281 5.93359 17.0429 5.93359C16.7738 5.93359 16.5738 6.02074 16.4429 6.19505C16.312 6.36747 16.2465 6.62041 16.2465 6.95388C16.2465 7.26461 16.312 7.50523 16.4429 7.67576C16.5738 7.84628 16.7647 7.93154 17.0156 7.93154C17.1774 7.93154 17.3165 7.89459 17.4329 7.8207C17.551 7.74491 17.6419 7.63597 17.7056 7.49387L18.3546 7.69849C18.2419 7.97512 18.0674 8.19017 17.831 8.34364C17.5965 8.49711 17.3374 8.57384 17.0538 8.57384ZM16.0393 7.14429V6.62704H18.0656V7.14429H16.0393Z"
              fill="#5F5F5F"/>
        <path d="M20.1768 8.57384C19.9059 8.57384 19.6695 8.50279 19.4677 8.36069C19.2659 8.21859 19.1095 8.02533 18.9986 7.78091C18.8877 7.5365 18.8323 7.26082 18.8323 6.95388C18.8323 6.64315 18.8877 6.36652 18.9986 6.124C19.1113 5.87959 19.2704 5.68728 19.4759 5.54707C19.6813 5.40497 19.9231 5.33392 20.2013 5.33392C20.4813 5.33392 20.7158 5.40497 20.9049 5.54707C21.0958 5.68728 21.2404 5.87959 21.3385 6.124C21.4367 6.36842 21.4858 6.64504 21.4858 6.95388C21.4858 7.25892 21.4367 7.5346 21.3385 7.78091C21.2404 8.02533 21.094 8.21859 20.8995 8.36069C20.7049 8.50279 20.464 8.57384 20.1768 8.57384ZM20.2777 7.95996C20.454 7.95996 20.5958 7.91828 20.7031 7.83491C20.8122 7.74965 20.8913 7.63123 20.9404 7.47966C20.9913 7.32808 21.0167 7.15282 21.0167 6.95388C21.0167 6.75304 20.9913 6.57778 20.9404 6.4281C20.8913 6.27653 20.814 6.15905 20.7086 6.07569C20.6031 5.99043 20.4668 5.9478 20.2995 5.9478C20.1231 5.9478 19.9777 5.99327 19.8631 6.08421C19.7486 6.17326 19.664 6.29453 19.6095 6.448C19.555 6.59957 19.5277 6.7682 19.5277 6.95388C19.5277 7.14145 19.554 7.31198 19.6068 7.46545C19.6613 7.61702 19.744 7.73733 19.8549 7.82638C19.9659 7.91544 20.1068 7.95996 20.2777 7.95996ZM21.0167 8.48858V6.33431H20.9349V4.39604H21.5976V8.48858H21.0167Z"
              fill="#5F5F5F"/>
        <path d="M24.8696 8.57384C24.5824 8.57384 24.3415 8.50279 24.1469 8.36069C23.9524 8.21859 23.806 8.02533 23.7078 7.78091C23.6097 7.5346 23.5606 7.25892 23.5606 6.95388C23.5606 6.64504 23.6097 6.36842 23.7078 6.124C23.806 5.87959 23.9497 5.68728 24.1387 5.54707C24.3296 5.40497 24.5651 5.33392 24.8451 5.33392C25.1233 5.33392 25.3642 5.40497 25.5678 5.54707C25.7732 5.68728 25.9323 5.87959 26.0451 6.124C26.1578 6.36652 26.2141 6.64315 26.2141 6.95388C26.2141 7.26082 26.1587 7.5365 26.0478 7.78091C25.9369 8.02533 25.7805 8.21859 25.5787 8.36069C25.3769 8.50279 25.1405 8.57384 24.8696 8.57384ZM23.4488 8.48858V4.39604H24.1115V6.33431H24.0297V8.48858H23.4488ZM24.7687 7.95996C24.9396 7.95996 25.0805 7.91544 25.1914 7.82638C25.3023 7.73733 25.3842 7.61702 25.4369 7.46545C25.4914 7.31198 25.5187 7.14145 25.5187 6.95388C25.5187 6.7682 25.4914 6.59957 25.4369 6.448C25.3823 6.29453 25.2978 6.17326 25.1833 6.08421C25.0687 5.99327 24.9233 5.9478 24.7469 5.9478C24.5796 5.9478 24.4433 5.99043 24.3378 6.07569C24.2324 6.15905 24.1542 6.27653 24.1033 6.4281C24.0542 6.57778 24.0297 6.75304 24.0297 6.95388C24.0297 7.15282 24.0542 7.32808 24.1033 7.47966C24.1542 7.63123 24.2333 7.74965 24.3406 7.83491C24.4496 7.91828 24.5924 7.95996 24.7687 7.95996Z"
              fill="#5F5F5F"/>
        <path d="M27.0055 9.85276L27.5727 8.22995L27.5836 8.70742L26.2991 5.41918H26.9836L27.8945 7.85196H27.72L28.6063 5.41918H29.2636L27.6218 9.85276H27.0055Z"
              fill="#5F5F5F"/>
        <path d="M103.609 6.6891C103.609 3.19352 100.777 0.361816 97.2816 0.361816C93.7861 0.361816 90.9543 3.19352 90.9543 6.6891C90.9543 10.1847 93.7861 13.0163 97.2816 13.0163C100.77 13.0163 103.609 10.1847 103.609 6.6891Z"
              fill="#5F5F5F"/>
        <path d="M32.4272 8.98395V4.4014H33.8486C34.3834 4.4014 34.7353 4.42263 34.8978 4.47221C35.1482 4.54304 35.358 4.69178 35.5273 4.92552C35.6965 5.15217 35.7845 5.44965 35.7845 5.81796C35.7845 6.10127 35.7371 6.335 35.6356 6.52624C35.5408 6.71747 35.4122 6.86622 35.2633 6.97955C35.1144 7.08579 34.9587 7.15661 34.803 7.19202C34.5932 7.23452 34.2886 7.25574 33.8892 7.25574H33.3139V8.98395H32.4272ZM33.3139 5.18049V6.48374H33.8012C34.1465 6.48374 34.3834 6.46247 34.4984 6.41289C34.6135 6.36331 34.7083 6.29248 34.7759 6.18623C34.8436 6.08707 34.8775 5.96667 34.8775 5.83209C34.8775 5.66211 34.8301 5.52756 34.7353 5.42132C34.6406 5.31508 34.5255 5.24422 34.3766 5.21589C34.2683 5.19464 34.0585 5.18758 33.7404 5.18758H33.3139V5.18049ZM42.2689 8.98395H41.3078L40.9287 7.9428H39.1756L38.8169 8.98395H37.876L39.5818 4.4014H40.5158L42.2689 8.98395ZM40.6377 7.17075L40.0353 5.47091L39.4464 7.17075H40.6377ZM45.5924 8.98395V7.05745L43.9882 4.4014H45.0238L46.0527 6.21459L47.0612 4.4014H48.0833L46.4723 7.06454V8.98395H45.5924ZM50.5606 7.49658L51.4203 7.41159C51.4744 7.71615 51.5759 7.93572 51.7316 8.07737C51.8941 8.21903 52.1039 8.28985 52.3746 8.28985C52.6589 8.28985 52.8755 8.2261 53.0177 8.10569C53.1598 7.9782 53.2343 7.82946 53.2343 7.65947C53.2343 7.55323 53.2004 7.46114 53.1395 7.38323C53.0786 7.30532 52.9771 7.2416 52.8214 7.18493C52.7199 7.14952 52.4829 7.07867 52.1107 6.98659C51.6368 6.86619 51.3052 6.7104 51.1157 6.53333C50.8449 6.27835 50.7095 5.97375 50.7095 5.61253C50.7095 5.3788 50.7705 5.15924 50.8991 4.96092C51.0277 4.75552 51.2104 4.59972 51.4473 4.49348C51.6842 4.38723 51.9753 4.33054 52.3138 4.33054C52.862 4.33054 53.2749 4.45805 53.5524 4.70595C53.8299 4.96093 53.9788 5.29382 53.9924 5.71879L53.1057 5.76128C53.0651 5.52755 52.9839 5.35758 52.862 5.25134C52.7402 5.1451 52.5506 5.0955 52.3002 5.0955C52.043 5.0955 51.8399 5.15215 51.6978 5.25839C51.603 5.32922 51.5556 5.42131 51.5556 5.54172C51.5556 5.64796 51.5962 5.74005 51.6842 5.81796C51.7925 5.91712 52.0633 6.01627 52.4965 6.12251C52.9297 6.22876 53.2411 6.34206 53.4509 6.45538C53.6607 6.56871 53.8164 6.72456 53.9382 6.92287C54.0533 7.12119 54.1142 7.36198 54.1142 7.65238C54.1142 7.91444 54.0465 8.16237 53.9044 8.38902C53.7622 8.61567 53.566 8.78564 53.3155 8.89896C53.0583 9.01229 52.7401 9.06185 52.3611 9.06185C51.8061 9.06185 51.3797 8.92728 51.0886 8.66522C50.7976 8.39607 50.6216 8.00654 50.5606 7.49658ZM57.1331 8.98395V4.4014H60.3821V5.1734H58.0198V6.18623H60.2196V6.95828H58.0198V8.20486H60.4633V8.97686H57.1331V8.98395ZM63.5024 8.98395V4.4368H64.3891V8.21195H66.589V8.98395H63.5024ZM69.4792 8.98395V4.4014H72.7282V5.1734H70.3659V6.18623H72.5658V6.95828H70.3659V8.20486H72.8095V8.97686H69.4792V8.98395ZM78.6305 7.29824L79.4902 7.58157C79.3616 8.08445 79.1382 8.45277 78.8336 8.70066C78.529 8.94148 78.1432 9.06185 77.6694 9.06185C77.0873 9.06185 76.6067 8.85649 76.2344 8.4386C75.8621 8.02072 75.6726 7.45407 75.6726 6.73162C75.6726 5.96668 75.8621 5.3788 76.2344 4.95383C76.6135 4.52886 77.1076 4.31641 77.7168 4.31641C78.2515 4.31641 78.6847 4.47928 79.0231 4.81217C79.2194 5.01049 79.3684 5.28672 79.4699 5.65502L78.5967 5.87459C78.5426 5.63377 78.4343 5.44964 78.2718 5.31506C78.1094 5.18049 77.9063 5.10968 77.6762 5.10968C77.3513 5.10968 77.0873 5.23006 76.8842 5.47795C76.6812 5.71877 76.5796 6.11544 76.5796 6.66081C76.5796 7.2416 76.6812 7.65241 76.8775 7.9003C77.0738 8.1482 77.3378 8.26858 77.6559 8.26858C77.8928 8.26858 78.0958 8.1907 78.265 8.03488C78.4343 7.87906 78.5561 7.63821 78.6305 7.29824ZM83.4973 8.98395V5.1734H82.1977V4.4014H85.6768V5.1734H84.3772V8.98395H83.4973ZM88.4859 8.98395V4.4014H89.3726V8.98395H88.4859Z"
              fill="#5F5F5F"/>
        <path d="M92.5362 6.72104C92.5362 6.25287 92.601 5.86275 92.7305 5.54355C92.8277 5.30947 92.9572 5.09666 93.1192 4.91223C93.2876 4.7278 93.469 4.58592 93.6634 4.5008C93.9225 4.38021 94.227 4.31641 94.5638 4.31641C95.1792 4.31641 95.678 4.52918 96.0473 4.94769C96.4165 5.3662 96.6044 5.94788 96.6044 6.69978C96.6044 7.43749 96.423 8.01916 96.0538 8.43767C95.6845 8.85618 95.1922 9.06185 94.5767 9.06185C93.9549 9.06185 93.4561 8.85618 93.0868 8.43767C92.7176 8.01916 92.5362 7.45166 92.5362 6.72104ZM93.4042 6.68558C93.4042 7.2034 93.5144 7.60062 93.7346 7.87016C93.9549 8.13971 94.2334 8.26739 94.5703 8.26739C94.9071 8.26739 95.1857 8.13262 95.3995 7.87016C95.6197 7.60062 95.7234 7.20338 95.7234 6.67138C95.7234 6.14647 95.6197 5.75635 95.406 5.49389C95.1987 5.23853 94.9201 5.10376 94.5703 5.10376C94.2205 5.10376 93.9419 5.23854 93.7281 5.50099C93.5144 5.76345 93.4042 6.16067 93.4042 6.68558ZM97.9129 8.98383V4.39442H98.7357L100.452 7.45878V4.39442H101.236V8.98383H100.388L98.6968 5.99044V8.98383H97.9129Z"
              fill="white"/>
    </g>
</svg>
