<svg width="221" height="23" viewBox="0 0 221 23" fill="none" xmlns="http://www.w3.org/2000/svg">
    <g opacity="0.6">
        <rect width="23" height="23" fill="#5F5F5F"/>
        <g clip-path="url(#clip0_56_6397)">
            <path d="M4.772 16.5862C4.76602 16.4333 4.80669 16.2823 4.88829 16.1545C4.96988 16.0347 5.08339 15.9418 5.21508 15.8871C5.36282 15.8257 5.52094 15.7951 5.68025 15.7972C5.83731 15.792 5.99422 15.8118 6.14542 15.856C6.23806 15.8851 6.32705 15.9253 6.41057 15.9759L6.44197 16.4219H6.43964C6.37603 16.368 6.30561 16.3232 6.23031 16.2888C6.14429 16.2508 6.05517 16.2207 5.964 16.1989C5.87293 16.1766 5.77966 16.1654 5.68606 16.1653C5.56588 16.1604 5.4463 16.1851 5.33718 16.2373C5.2933 16.2613 5.25723 16.2981 5.23345 16.3431C5.20968 16.388 5.19924 16.4392 5.20345 16.4903C5.19865 16.5678 5.22138 16.6446 5.26741 16.7061C5.31901 16.7645 5.38427 16.8083 5.45696 16.8332C5.54186 16.8668 5.64769 16.9004 5.77328 16.9363C5.89888 16.9723 6.00587 17.0023 6.10704 17.0371C6.20397 17.0679 6.29603 17.1132 6.38033 17.1714C6.45856 17.2273 6.52177 17.3028 6.56407 17.3908C6.61195 17.5003 6.63464 17.6197 6.63036 17.7397C6.63742 17.8577 6.61777 17.9758 6.57297 18.0847C6.52816 18.1935 6.45943 18.2901 6.37219 18.3668C6.16273 18.5235 5.90716 18.6006 5.64885 18.5851C5.49168 18.5839 5.33532 18.5617 5.18368 18.5191C5.04616 18.4852 4.91574 18.4259 4.79875 18.3441L4.7627 17.898H4.772C4.89431 18.0002 5.03388 18.0783 5.18368 18.1282C5.33928 18.1839 5.50275 18.2127 5.66746 18.2134C6.01323 18.2134 6.18612 18.0907 6.18612 17.8452C6.18942 17.7699 6.16903 17.6954 6.12798 17.633C6.07768 17.5709 6.01225 17.5237 5.93842 17.4963C5.82762 17.4521 5.7142 17.4153 5.59884 17.386C5.48953 17.3548 5.38486 17.3212 5.28718 17.2865C5.19347 17.2532 5.10464 17.2068 5.02319 17.1486C4.94349 17.0929 4.8787 17.0175 4.8348 16.9291C4.78819 16.8214 4.76668 16.704 4.772 16.5862Z"
                  fill="white"/>
            <path d="M6.97119 18.5355V15.8472H8.65279V16.2369H7.43171V16.9563H8.39578V17.3304H7.43171V18.1482H8.65279V18.5367L6.97119 18.5355Z"
                  fill="white"/>
            <path d="M9.34937 17.1912C9.34527 17.3745 9.38229 17.5563 9.45752 17.7224C9.52435 17.8684 9.6321 17.9904 9.76686 18.0726C9.91572 18.1574 10.0842 18.1988 10.2541 18.1925C10.4052 18.2004 10.5562 18.1755 10.6975 18.1196C10.8387 18.0636 10.9669 17.9777 11.074 17.8675H11.0845L11.0368 18.3376C10.9264 18.4131 10.8062 18.472 10.6798 18.5126C10.5241 18.5614 10.3621 18.5849 10.1995 18.5822C10.0098 18.5854 9.8214 18.5487 9.64591 18.4743C9.48779 18.4063 9.34519 18.305 9.22726 18.1769C9.111 18.049 9.02118 17.898 8.96327 17.7332C8.84232 17.3802 8.84232 16.9951 8.96327 16.642C9.02088 16.4769 9.11108 16.3259 9.22818 16.1986C9.34528 16.0712 9.48673 15.9703 9.64359 15.9022C9.8175 15.828 10.0043 15.7913 10.1925 15.7943C10.3521 15.791 10.5115 15.8108 10.6658 15.853C10.7883 15.8864 10.9035 15.9433 11.0054 16.0209L11.0542 16.5006H11.0438C10.9455 16.4023 10.8303 16.3238 10.7042 16.2691C10.5595 16.2088 10.4044 16.1794 10.2483 16.1828C10.0787 16.1763 9.9106 16.2178 9.76221 16.3027C9.62836 16.3853 9.52146 16.5072 9.45519 16.6528C9.37999 16.8214 9.34376 17.0057 9.34937 17.1912Z"
                  fill="white"/>
            <path d="M12.5359 18.1818C12.7207 18.1989 12.905 18.1428 13.0511 18.0247C13.158 17.92 13.2115 17.7413 13.2115 17.4887V15.8472H13.5965V17.5139C13.5965 17.8904 13.5034 18.1638 13.3197 18.3329C13.136 18.5019 12.8673 18.5859 12.5149 18.5859C12.2233 18.6037 11.9349 18.5145 11.7009 18.3341C11.5063 18.1662 11.4094 17.8928 11.4102 17.5139V15.8472H11.8753V17.4779C11.8753 17.7309 11.9277 17.9108 12.0312 18.0199C12.1347 18.129 12.2986 18.1818 12.5359 18.1818Z"
                  fill="white"/>
            <path d="M14.0454 18.5353V15.847H15.1467C15.3012 15.8429 15.4541 15.8796 15.5909 15.9537C15.7115 16.0205 15.8108 16.1216 15.877 16.2451C15.9447 16.3738 15.9792 16.5183 15.977 16.6648C15.9803 16.837 15.9284 17.0056 15.8293 17.1444C15.7311 17.2812 15.5889 17.3777 15.4281 17.4166L16.0968 18.5341H15.5689L14.9653 17.4801H14.5001V18.5341L14.0454 18.5353ZM15.0234 16.2199H14.5048V17.1252H15.0234C15.1534 17.1374 15.283 17.0975 15.3851 17.0137C15.4574 16.9156 15.4966 16.7958 15.4966 16.6726C15.4966 16.5493 15.4574 16.4295 15.3851 16.3314C15.283 16.2476 15.1534 16.2077 15.0234 16.2199Z"
                  fill="white"/>
            <path d="M16.4395 18.5355V15.8472H18.1211V16.2369H16.8988V16.9563H17.8594V17.3304H16.8953V18.1482H18.1176V18.5367L16.4395 18.5355Z"
                  fill="white"/>
        </g>
        <rect width="23" height="11.5" fill="white"/>
        <path d="M13.9234 3.14453C12.7863 3.14453 11.7701 3.73645 11.7701 4.83006C11.7701 6.08422 13.5723 6.17084 13.5723 6.8009C13.5723 7.06619 13.2696 7.30367 12.7526 7.30367C12.0188 7.30367 11.4704 6.97184 11.4704 6.97184L11.2357 8.07541C11.2357 8.07541 11.8675 8.3557 12.7063 8.3557C13.9495 8.3557 14.9277 7.73473 14.9277 6.62242C14.9277 5.29717 13.118 5.21312 13.118 4.62832C13.118 4.4205 13.3665 4.1928 13.8821 4.1928C14.4637 4.1928 14.9383 4.43413 14.9383 4.43413L15.168 3.36826C15.168 3.36826 14.6516 3.14453 13.9234 3.14453ZM3.52021 3.22497L3.49268 3.38586C3.49268 3.38586 3.97105 3.47379 4.4019 3.64918C4.95665 3.85031 4.99617 3.9674 5.0896 4.33106L6.1077 8.27275H7.47247L9.575 3.22497H8.21336L6.86236 6.65698L6.31107 3.74785C6.26051 3.4149 6.00442 3.22497 5.69095 3.22497H3.52021ZM10.1225 3.22497L9.05437 8.27275H10.3528L11.4172 3.22497H10.1225ZM17.3644 3.22497C17.0513 3.22497 16.8854 3.39333 16.7636 3.68752L14.8614 8.27275H16.223L16.4864 7.50854H18.1453L18.3055 8.27275H19.507L18.4588 3.22497H17.3644ZM17.5415 4.58873L17.9451 6.4829H16.8638L17.5415 4.58873Z"
              fill="#5F5F5F"/>
        <path fill-rule="evenodd" clip-rule="evenodd"
              d="M88.2192 9.6671C88.2192 9.14908 88.6283 8.72656 89.1183 8.72656C89.6228 8.72656 90.0183 9.14908 90.0183 9.6671C90.0183 10.1851 89.6228 10.6076 89.1183 10.6076C88.6283 10.6211 88.2192 10.1986 88.2192 9.6671ZM89.1183 10.4031C89.5003 10.4031 89.8003 10.0761 89.8003 9.6806C89.8003 9.28507 89.4868 8.95806 89.1183 8.95806C88.7373 8.95806 88.4372 9.28507 88.4372 9.6806C88.4372 10.0761 88.7373 10.4031 89.1183 10.4031ZM88.9958 10.0896H88.8047V9.25808H89.1463C89.2138 9.25808 89.2958 9.25808 89.3508 9.29857C89.4183 9.34009 89.4463 9.42107 89.4463 9.50308C89.4463 9.59859 89.3913 9.6806 89.3093 9.70759L89.4598 10.0761H89.2553L89.1328 9.74808H88.9958V10.0896ZM88.9958 9.62558H89.1048C89.1463 9.62558 89.1868 9.62558 89.2138 9.61208C89.2408 9.59859 89.2553 9.5581 89.2553 9.51658C89.2553 9.48958 89.2408 9.4491 89.2138 9.4356C89.1868 9.42107 89.1328 9.42107 89.1048 9.42107H89.0093L88.9958 9.62558Z"
              fill="#5F5F5F"/>
        <path fill-rule="evenodd" clip-rule="evenodd"
              d="M75.3367 3.38203L75.0917 4.99112C74.5602 4.7046 74.1647 4.5956 73.7422 4.5956C72.6241 4.5956 71.8331 5.74065 71.8331 7.36324C71.8331 8.48027 72.3646 9.16231 73.2376 9.16231C73.6051 9.16231 74.0142 9.03981 74.5187 8.78028L74.2592 10.4714C73.7006 10.6344 73.3466 10.6894 72.9241 10.6894C71.3015 10.6894 70.2925 9.46233 70.2925 7.49924C70.2925 4.85409 71.6836 3 73.6872 3C73.9456 3 74.1782 3.02699 74.3692 3.08201L74.9962 3.24604C75.1592 3.31351 75.2007 3.32701 75.3367 3.38203Z"
              fill="#5F5F5F"/>
        <path fill-rule="evenodd" clip-rule="evenodd"
              d="M70.3333 4.48615C70.2918 4.47266 70.2378 4.47266 70.1828 4.47266C69.6917 4.47266 69.4062 4.73115 68.9422 5.45368L69.0782 4.54013H67.7151L66.7881 10.5519H68.3017C68.8467 6.87176 68.9827 6.24474 69.7052 6.24474C69.7467 6.24474 69.7602 6.24474 69.8142 6.24474C69.9513 5.5222 70.1277 4.99068 70.3873 4.49965L70.3333 4.48615Z"
              fill="#5F5F5F"/>
        <path fill-rule="evenodd" clip-rule="evenodd"
              d="M61.3216 10.4715C60.9126 10.6075 60.5856 10.675 60.2451 10.675C59.4821 10.675 59.0596 10.212 59.0596 9.35343C59.0596 9.18941 59.0731 8.99839 59.1001 8.80738L59.1956 8.22187L59.263 7.74434L59.9181 3.64062H61.4172L61.2407 4.52718H62.0172L61.7992 5.98575H61.0351L60.6406 8.49386C60.6271 8.60287 60.6126 8.68488 60.6126 8.7399C60.6126 9.05341 60.7766 9.18941 61.1317 9.18941C61.3082 9.18941 61.4306 9.17591 61.5397 9.13542L61.3216 10.4715Z"
              fill="#5F5F5F"/>
        <path fill-rule="evenodd" clip-rule="evenodd"
              d="M55.3784 6.43585C55.3784 7.19991 55.7324 7.71793 56.5234 8.11346C57.1235 8.41348 57.2325 8.50795 57.2325 8.78097C57.2325 9.14951 56.9595 9.32599 56.3729 9.32599C55.9234 9.32599 55.5144 9.25851 55.0234 9.08099L54.8188 10.4721L54.8874 10.4856L55.1604 10.5396C55.2559 10.5531 55.3784 10.58 55.5549 10.5946C55.9099 10.6216 56.1964 10.6486 56.3864 10.6486C57.9685 10.6486 58.7046 10.008 58.7046 8.64498C58.7046 7.82694 58.4045 7.3359 57.6415 6.96841C57.0145 6.66839 56.946 6.59987 56.946 6.31335C56.946 5.98634 57.191 5.82335 57.682 5.82335C57.982 5.82335 58.3775 5.86384 58.7596 5.91782L58.9776 4.52777C58.5821 4.45926 57.9955 4.40527 57.655 4.40527C55.9504 4.40527 55.3649 5.31882 55.3784 6.43585Z"
              fill="#5F5F5F"/>
        <path fill-rule="evenodd" clip-rule="evenodd"
              d="M87.3468 10.5396H85.9152L85.9838 9.95409C85.5747 10.4171 85.1387 10.6216 84.5937 10.6216C83.4891 10.6216 82.7666 9.62604 82.7666 8.12699C82.7666 6.12237 83.8847 4.4323 85.2207 4.4323C85.8062 4.4323 86.2433 4.69183 86.6658 5.25034L86.9928 3.13672H88.4784L87.3468 10.5396ZM85.1252 9.13605C85.8343 9.13605 86.3243 8.30451 86.3243 7.10444C86.3243 6.34141 86.0388 5.91786 85.5197 5.91786C84.8387 5.91786 84.3477 6.76393 84.3477 7.93597C84.3477 8.72703 84.6072 9.13605 85.1252 9.13605Z"
              fill="#5F5F5F"/>
        <path fill-rule="evenodd" clip-rule="evenodd"
              d="M66.0932 10.4167C65.5752 10.5797 65.0852 10.6617 64.5402 10.6617C62.8626 10.6617 61.9771 9.73466 61.9771 7.96258C61.9771 5.89048 63.0941 4.37793 64.6077 4.37793C65.8482 4.37793 66.6393 5.23646 66.6393 6.57253C66.6393 7.00854 66.5843 7.44455 66.4483 8.05809H63.4491C63.4356 8.15359 63.4356 8.19512 63.4356 8.2491C63.4356 8.95814 63.8851 9.31214 64.7582 9.31214C65.2897 9.31214 65.7807 9.18964 66.3258 8.93115L66.0932 10.4167ZM65.2482 6.83102C65.2627 6.70852 65.2627 6.59952 65.2627 6.531C65.2627 6.03997 65.0032 5.75448 64.5537 5.75448C64.0761 5.75448 63.7356 6.13651 63.5986 6.83102H65.2482Z"
              fill="#5F5F5F"/>
        <path fill-rule="evenodd" clip-rule="evenodd"
              d="M49.3254 10.5387H47.8263L48.6849 4.85395L46.7488 10.5387H45.7262L45.6037 4.89548L44.6902 10.5387H43.2866L44.4587 3.15039H46.6263L46.6813 7.7306L48.1534 3.15039H50.4985L49.3254 10.5387Z"
              fill="#5F5F5F"/>
        <path fill-rule="evenodd" clip-rule="evenodd"
              d="M53.2114 7.86627C53.0473 7.85277 52.9798 7.83928 52.8708 7.83928C52.0113 7.83928 51.5888 8.15279 51.5888 8.75283C51.5888 9.12136 51.8068 9.36636 52.1338 9.36636C52.7338 9.36636 53.1844 8.75283 53.2114 7.86627ZM54.3014 10.5384H53.0473L53.0743 9.91138C52.6933 10.4159 52.1888 10.6339 51.4933 10.6339C50.6752 10.6339 50.1167 9.9664 50.1167 8.99783C50.1167 7.52576 51.0977 6.68073 52.7618 6.68073C52.9383 6.68073 53.1563 6.69423 53.3743 6.72122C53.4159 6.51671 53.4294 6.43469 53.4294 6.32569C53.4294 5.9312 53.1709 5.78068 52.4618 5.78068C52.0393 5.78068 51.5483 5.84919 51.2067 5.95819L51.0168 6.02567L50.8797 6.0672L51.0842 4.71763C51.8338 4.48613 52.3383 4.39062 52.8843 4.39062C54.1789 4.39062 54.8609 5.00416 54.8609 6.14921C54.8609 6.44923 54.8329 6.66723 54.7374 7.34825L54.4384 9.48886L54.3834 9.87089L54.3429 10.1699L54.3159 10.3889L54.3014 10.5384Z"
              fill="#5F5F5F"/>
        <path fill-rule="evenodd" clip-rule="evenodd"
              d="M77.9404 7.86707C77.7909 7.85357 77.7089 7.84008 77.5999 7.84008C76.7413 7.84008 76.3043 8.15359 76.3043 8.75363C76.3043 9.12216 76.5233 9.36716 76.8503 9.36716C77.4639 9.36716 77.9134 8.75363 77.9404 7.86707ZM79.0314 10.5392H77.7774L77.8044 9.91218C77.4223 10.4167 76.9178 10.6347 76.2233 10.6347C75.4053 10.6347 74.8457 9.9672 74.8457 8.99863C74.8457 7.52656 75.8278 6.68153 77.4908 6.68153C77.6538 6.68153 77.8864 6.69503 78.1044 6.72202C78.1449 6.51751 78.1584 6.43549 78.1584 6.32649C78.1584 5.932 77.8999 5.78148 77.1908 5.78148C76.7683 5.78148 76.2773 5.84999 75.9368 5.959L75.7188 6.01298L75.5817 6.0545L75.7862 4.70494C76.5368 4.47344 77.0413 4.37793 77.5864 4.37793C78.8809 4.37793 79.5629 4.99146 79.5629 6.13651C79.5629 6.43549 79.536 6.65454 79.4404 7.33555L79.1269 9.46267L79.0854 9.8447L79.0449 10.1437L79.0179 10.3482L79.0314 10.5392Z"
              fill="#5F5F5F"/>
        <path fill-rule="evenodd" clip-rule="evenodd"
              d="M83.2434 4.48615C83.2019 4.47266 83.1479 4.47266 83.0929 4.47266C82.6019 4.47266 82.3154 4.73115 81.8524 5.45368L81.9894 4.54013H80.6253L79.6982 10.5519H81.2118C81.7568 6.87176 81.8928 6.24474 82.6154 6.24474C82.6569 6.24474 82.6569 6.24474 82.7254 6.24474C82.8614 5.5222 83.0524 4.99068 83.2974 4.49965L83.2434 4.48615Z"
              fill="#5F5F5F"/>
        <path fill-rule="evenodd" clip-rule="evenodd"
              d="M76.9178 16.3878C76.9178 17.7508 76.4953 18.5554 75.8277 18.5554C75.3367 18.5689 75.0502 18.0239 75.0502 17.2193C75.0502 16.2653 75.4862 15.1742 76.1682 15.1742C76.7268 15.1742 76.9178 15.7608 76.9178 16.3878ZM78.4044 16.4013C78.4044 14.8877 77.6538 13.7021 76.2503 13.7021C74.6277 13.7021 73.5781 15.1337 73.5781 17.2463C73.5781 18.7599 74.2052 20.0005 75.7322 20.0005C77.2728 20.0005 78.4044 18.9094 78.4044 16.4013Z"
              fill="#5F5F5F"/>
        <path fill-rule="evenodd" clip-rule="evenodd"
              d="M74.0554 12.6516L73.8229 14.2596C73.3194 13.9741 72.9644 13.8641 72.5688 13.8641C71.5193 13.8641 70.7833 15.0102 70.7833 16.6317C70.7833 17.7498 71.2743 18.4318 72.0924 18.4318C72.4464 18.4318 72.8284 18.3083 73.2914 18.0498L73.0464 19.7399C72.5284 19.9039 72.1868 19.9579 71.7923 19.9579C70.2787 19.9579 69.3247 18.7319 69.3247 16.7677C69.3247 14.1236 70.6327 12.2695 72.5014 12.2695C72.7464 12.2695 72.9509 12.2965 73.1284 12.3515L73.7004 12.5145C73.8914 12.5695 73.9319 12.583 74.0554 12.6516Z"
              fill="#5F5F5F"/>
        <path fill-rule="evenodd" clip-rule="evenodd"
              d="M64.7435 13.743C64.703 13.7295 64.649 13.7295 64.594 13.7295C64.131 13.7295 63.8715 13.989 63.4355 14.7105L63.5715 13.798H62.3039L61.4443 19.8098H62.8489C63.3534 16.1286 63.4894 15.5016 64.158 15.5016C64.1985 15.5016 64.1985 15.5016 64.267 15.5151C64.3895 14.7925 64.567 14.261 64.7985 13.77L64.7435 13.743Z"
              fill="#5F5F5F"/>
        <path fill-rule="evenodd" clip-rule="evenodd"
              d="M83.1205 19.7546H81.7845L81.853 19.169C81.4709 19.6321 81.0619 19.8366 80.5439 19.8366C79.5213 19.8366 78.8403 18.841 78.8403 17.3419C78.8403 15.3384 79.8899 13.6473 81.1304 13.6473C81.6755 13.6473 82.098 13.9068 82.48 14.4788L82.7935 12.3662H84.1846L83.1205 19.7546ZM81.0349 18.3375C81.7035 18.3375 82.153 17.506 82.153 16.3059C82.153 15.5429 81.8935 15.1339 81.4035 15.1339C80.7629 15.1339 80.3124 15.9654 80.3124 17.1509C80.3124 17.942 80.5574 18.3375 81.0349 18.3375Z"
              fill="#5F5F5F"/>
        <path fill-rule="evenodd" clip-rule="evenodd"
              d="M51.5475 19.7273C51.0699 19.8913 50.6069 19.9733 50.1024 19.9733C48.5348 19.9733 47.7168 19.0462 47.7168 17.2731C47.7168 15.2156 48.7663 13.6885 50.1699 13.6885C51.3295 13.6885 52.0655 14.5335 52.0655 15.8831C52.0655 16.3191 52.0105 16.7551 51.888 17.3686H49.0934C49.0799 17.4641 49.0799 17.5057 49.0799 17.5596C49.0799 18.2552 49.5024 18.6092 50.3204 18.6092C50.8249 18.6092 51.2745 18.4867 51.779 18.2282L51.5475 19.7273ZM50.7564 16.1416C50.7564 16.0191 50.7699 15.9101 50.7699 15.8426C50.7699 15.3516 50.5249 15.065 50.1024 15.065C49.6519 15.065 49.3383 15.4471 49.2024 16.1416H50.7564Z"
              fill="#5F5F5F"/>
        <path fill-rule="evenodd" clip-rule="evenodd"
              d="M68.2886 19.7273C67.811 19.8913 67.348 19.9733 66.8435 19.9733C65.2624 19.9733 64.4434 19.0462 64.4434 17.2731C64.4434 15.2156 65.4939 13.6885 66.8975 13.6885C68.056 13.6885 68.8066 14.5335 68.8066 15.8831C68.8066 16.3191 68.7516 16.7551 68.6291 17.3686H65.8344C65.821 17.4641 65.821 17.5057 65.821 17.5596C65.821 18.2552 66.2435 18.6092 67.0615 18.6092C67.566 18.6092 68.0155 18.4867 68.5201 18.2282L68.2886 19.7273ZM67.4975 16.1416C67.511 16.0191 67.511 15.9101 67.511 15.8426C67.511 15.3516 67.266 15.065 66.8435 15.065C66.393 15.065 66.0794 15.4471 65.9435 16.1416H67.4975Z"
              fill="#5F5F5F"/>
        <path fill-rule="evenodd" clip-rule="evenodd"
              d="M87.9204 19.7273C87.4293 19.8913 86.9663 19.9733 86.4753 19.9733C84.9077 19.9733 84.0762 19.0462 84.0762 17.2731C84.0762 15.2156 85.1257 13.6885 86.5438 13.6885C87.7023 13.6885 88.4384 14.5335 88.4384 15.8831C88.4384 16.3191 88.3834 16.7551 88.2609 17.3686H85.4662C85.4527 17.4641 85.4527 17.5057 85.4527 17.5596C85.4527 18.2552 85.8752 18.6092 86.6933 18.6092C87.1978 18.6092 87.6473 18.4867 88.1519 18.2282L87.9204 19.7273ZM87.1293 16.1416C87.1293 16.0191 87.1428 15.9101 87.1428 15.8426C87.1428 15.3516 86.8978 15.065 86.4753 15.065C86.0247 15.065 85.7123 15.4471 85.5752 16.1416H87.1293Z"
              fill="#5F5F5F"/>
        <path fill-rule="evenodd" clip-rule="evenodd"
              d="M47.3757 14.0146C47.1037 13.8236 46.7217 13.6741 46.2037 13.6741C45.6306 13.6741 45.1811 13.7966 45.1811 14.3956C45.1811 15.4597 47.2532 15.0641 47.2532 17.3543C47.2532 19.4398 45.8901 19.9859 44.6496 19.9859C44.1046 19.9859 43.463 19.8084 43 19.5904L43.3405 18.0633C43.627 18.3228 44.1866 18.4993 44.6631 18.4993C45.1126 18.4993 45.7946 18.3768 45.7946 17.5992C45.7946 16.3867 43.7225 16.8362 43.7225 14.7091C43.7225 12.7605 44.9361 12.1875 46.1081 12.1875C46.7622 12.1875 47.3902 12.283 47.7442 12.528L47.3757 14.0146Z"
              fill="#5F5F5F"/>
        <path fill-rule="evenodd" clip-rule="evenodd"
              d="M55.6651 19.7266C55.3786 19.8626 54.9831 19.9581 54.41 19.9581C53.184 19.9581 52.4199 18.7321 52.4199 17.232C52.4199 15.2689 53.5245 13.7148 55.146 13.7148C55.5011 13.7148 56.0461 13.8643 56.4686 14.1104L56.1561 15.5419C55.8551 15.3374 55.5416 15.2149 55.2146 15.2149C54.465 15.2149 53.92 15.9094 53.92 17.1365C53.92 17.8455 54.3155 18.4321 54.9291 18.4321C55.2966 18.4321 55.5551 18.3501 55.8696 18.1726L55.6651 19.7266Z"
              fill="#5F5F5F"/>
        <path fill-rule="evenodd" clip-rule="evenodd"
              d="M60.9265 18.2142C60.859 18.7333 60.7905 19.2368 60.75 19.7683H59.4004L59.5094 18.8008H59.4959C59.0734 19.4558 58.6374 19.9053 57.8599 19.9053C57.0148 19.9053 56.5508 19.0053 56.5508 17.8467C56.5508 17.4377 56.5778 17.2197 56.6598 16.5927L57.0418 13.8115H58.5554L58.1464 16.6062C58.1049 16.9062 58.0509 17.2062 58.0509 17.5197C58.0509 17.8737 58.2139 18.2287 58.6229 18.2007C59.2364 18.2007 59.6049 17.4512 59.7139 16.5657L60.1365 13.8115H61.595L60.9265 18.2142Z"
              fill="#5F5F5F"/>
        <path fill-rule="evenodd" clip-rule="evenodd"
              d="M89.3232 19.6999H89.0917V18.7043H88.7646V18.4863H89.6502V18.7043H89.3232V19.6999Z" fill="#5F5F5F"/>
        <path fill-rule="evenodd" clip-rule="evenodd"
              d="M90.837 19.6999H90.619V18.6908L90.4144 19.6999H90.1964L89.9919 18.6908V19.6999H89.7739V18.4863H90.1144L90.3054 19.4404H90.3189L90.51 18.4863H90.837V19.6999Z"
              fill="#5F5F5F"/>
        <g clip-path="url(#clip1_56_6397)">
            <path fill-rule="evenodd" clip-rule="evenodd"
                  d="M128.147 0H107.837C108.32 6.48755 113.876 12.0393 119.627 12.0393H138.641C139.738 6.64809 135.961 0 128.147 0Z"
                  fill="#5F5F5F"/>
            <path d="M155.624 22.9957H136.506C130.64 22.9957 125.071 17.3142 124.586 10.8376L124.576 10.7002H145.03C148.519 10.7002 151.539 12.0538 153.535 14.5125C155.448 16.8689 156.238 20.0016 155.65 22.8935L155.624 22.9957ZM124.853 10.9608C125.394 17.2548 130.807 22.745 136.506 22.745H155.419C155.953 19.9565 155.179 16.9491 153.342 14.6796C151.395 12.2814 148.444 10.9608 145.03 10.9608H124.853Z"
                  fill="#5F5F5F"/>
            <path d="M133.275 14.8862H133.524L135.289 18.9338H134.983L134.486 17.7243H132.309L131.812 18.9338H131.5L133.275 14.8862ZM134.406 17.4889L133.4 15.2403L132.376 17.4889H134.406Z"
                  fill="#5F5F5F"/>
            <path d="M135.724 17.4407C135.723 17.2381 135.76 17.0371 135.833 16.848C135.901 16.6683 136.003 16.5036 136.134 16.3631C136.263 16.2234 136.42 16.1112 136.593 16.0332C136.777 15.9518 136.976 15.9109 137.177 15.9134C137.425 15.9081 137.67 15.9712 137.886 16.0959C138.087 16.2137 138.247 16.3906 138.345 16.6028L138.067 16.6941C137.982 16.5329 137.853 16.3994 137.695 16.3092C137.534 16.2159 137.351 16.1677 137.165 16.1696C137.009 16.1681 136.854 16.2011 136.711 16.2664C136.573 16.3301 136.448 16.4214 136.346 16.5347C136.24 16.6526 136.156 16.789 136.099 16.9371C135.976 17.2603 135.976 17.6179 136.099 17.941C136.157 18.0918 136.241 18.2307 136.348 18.3512C136.452 18.4667 136.577 18.5605 136.717 18.6272C136.857 18.695 137.011 18.73 137.167 18.7294C137.27 18.7292 137.372 18.714 137.47 18.6843C137.567 18.6552 137.66 18.615 137.748 18.5645C137.829 18.5174 137.902 18.4589 137.967 18.3908C138.024 18.332 138.068 18.261 138.095 18.1829L138.372 18.2632C138.333 18.369 138.274 18.4666 138.2 18.5513C138.12 18.6417 138.028 18.7196 137.925 18.7822C137.816 18.8487 137.698 18.8994 137.574 18.9329C137.445 18.969 137.311 18.9871 137.177 18.9867C136.978 18.9885 136.78 18.9469 136.599 18.8647C136.423 18.7848 136.266 18.6704 136.136 18.5282C136.005 18.3843 135.901 18.2173 135.83 18.0356C135.758 17.8456 135.722 17.6439 135.724 17.4407Z"
                  fill="#5F5F5F"/>
            <path d="M138.659 17.4407C138.658 17.2381 138.696 17.0371 138.768 16.848C138.836 16.6683 138.938 16.5036 139.069 16.3631C139.198 16.2234 139.355 16.1112 139.528 16.0332C139.712 15.9518 139.911 15.9109 140.112 15.9134C140.36 15.9081 140.606 15.9712 140.821 16.0959C141.022 16.2137 141.182 16.3906 141.28 16.6028L141.002 16.6941C140.917 16.5329 140.788 16.3994 140.631 16.3092C140.468 16.2186 140.284 16.1734 140.098 16.1784C139.941 16.1769 139.786 16.2099 139.644 16.2752C139.506 16.3389 139.381 16.4302 139.279 16.5435C139.173 16.6614 139.089 16.7978 139.032 16.9459C138.908 17.2691 138.908 17.6267 139.032 17.9498C139.089 18.1006 139.174 18.2395 139.281 18.36C139.385 18.4755 139.51 18.5693 139.65 18.636C139.79 18.7038 139.944 18.7388 140.1 18.7382C140.203 18.738 140.305 18.7228 140.403 18.6931C140.5 18.664 140.593 18.6238 140.681 18.5733C140.762 18.5262 140.835 18.4677 140.9 18.3996C140.957 18.3408 141.001 18.2698 141.027 18.1917L141.312 18.2676C141.272 18.3734 141.213 18.471 141.139 18.5557C141.06 18.6461 140.967 18.724 140.865 18.7866C140.755 18.8531 140.637 18.9038 140.513 18.9373C140.384 18.9734 140.251 18.9915 140.117 18.9911C139.917 18.9929 139.72 18.9513 139.538 18.8691C139.363 18.7892 139.206 18.6748 139.075 18.5326C138.804 18.2348 138.655 17.8446 138.659 17.4407Z"
                  fill="#5F5F5F"/>
            <path d="M143.05 18.992C142.851 18.9937 142.654 18.9521 142.472 18.8699C142.297 18.7901 142.14 18.6757 142.009 18.5335C141.878 18.3895 141.774 18.2225 141.703 18.0408C141.629 17.8502 141.592 17.6472 141.594 17.4427C141.592 17.2406 141.629 17.0402 141.703 16.8522C141.774 16.6732 141.876 16.5088 142.006 16.3673C142.134 16.2275 142.29 16.1153 142.462 16.0374C142.641 15.9566 142.836 15.9157 143.032 15.9175C143.231 15.9158 143.429 15.9574 143.61 16.0396C143.784 16.1182 143.94 16.2303 144.07 16.3695C144.199 16.5106 144.301 16.6751 144.37 16.8544C144.443 17.0403 144.48 17.2384 144.48 17.4383V17.5097C144.483 17.5276 144.483 17.5458 144.48 17.5636H141.888C141.898 17.7284 141.938 17.8899 142.007 18.0397C142.071 18.18 142.158 18.3083 142.265 18.4191C142.368 18.525 142.49 18.6101 142.625 18.6698C142.763 18.731 142.912 18.7621 143.063 18.7611C143.164 18.7611 143.266 18.7466 143.363 18.7182C143.459 18.6909 143.551 18.6518 143.638 18.6016C143.722 18.5535 143.798 18.4931 143.864 18.4224C143.928 18.3544 143.981 18.2764 144.02 18.1915L144.264 18.2674C144.222 18.3758 144.159 18.4753 144.081 18.5609C143.998 18.6513 143.902 18.729 143.797 18.7919C143.687 18.858 143.567 18.9087 143.443 18.9425C143.315 18.9762 143.183 18.9929 143.05 18.992ZM144.206 17.3426C144.197 17.177 144.158 17.0145 144.09 16.8632C144.028 16.7246 143.942 16.5981 143.836 16.4893C143.732 16.3855 143.61 16.3023 143.476 16.2441C143.338 16.1846 143.189 16.1547 143.038 16.1562C142.888 16.1549 142.739 16.1849 142.601 16.2441C142.467 16.3023 142.345 16.3855 142.241 16.4893C142.135 16.5974 142.05 16.7251 141.992 16.8654C141.929 17.0166 141.892 17.1777 141.883 17.3415H144.205L144.206 17.3426Z"
                  fill="#5F5F5F"/>
            <path d="M146.416 18.9918C146.175 18.9956 145.938 18.925 145.738 18.7895C145.545 18.6607 145.382 18.4925 145.259 18.2958V20.0265H144.976V15.9702H145.236V16.5629C145.357 16.3725 145.521 16.2132 145.715 16.0977C145.907 15.9799 146.128 15.9178 146.352 15.9185C146.549 15.9169 146.743 15.9617 146.919 16.0494C147.089 16.1341 147.242 16.2513 147.367 16.3946C147.621 16.6903 147.762 17.0673 147.764 17.4579C147.765 17.6577 147.733 17.8562 147.668 18.0451C147.607 18.2241 147.514 18.3904 147.394 18.5355C147.275 18.674 147.13 18.7864 146.966 18.8654C146.795 18.9494 146.606 18.9927 146.416 18.9918ZM146.348 18.7345C146.509 18.7358 146.669 18.6981 146.813 18.6246C146.95 18.5541 147.072 18.4561 147.17 18.3365C147.27 18.2147 147.347 18.0757 147.397 17.9263C147.449 17.775 147.476 17.616 147.477 17.4557C147.477 17.289 147.446 17.1238 147.386 16.9686C147.328 16.8179 147.242 16.6795 147.133 16.5607C147.026 16.4434 146.898 16.3475 146.756 16.2781C146.613 16.2062 146.456 16.1686 146.297 16.1681C146.184 16.1697 146.073 16.1921 145.969 16.2341C145.852 16.2777 145.741 16.3373 145.64 16.4111C145.541 16.4822 145.453 16.5678 145.379 16.6651C145.31 16.7521 145.267 16.8569 145.254 16.9675V17.9428C145.304 18.053 145.366 18.1564 145.441 18.2507C145.516 18.3445 145.601 18.4287 145.696 18.5014C145.789 18.5731 145.892 18.6299 146.002 18.6697C146.113 18.7109 146.23 18.7329 146.348 18.7345Z"
                  fill="#5F5F5F"/>
            <path d="M149.722 18.7919L149.645 18.8348C149.602 18.8589 149.557 18.8788 149.51 18.8942C149.449 18.9148 149.387 18.932 149.325 18.9458C149.253 18.9615 149.18 18.9693 149.106 18.9689C149.03 18.9697 148.954 18.9582 148.882 18.9348C148.815 18.9132 148.752 18.8785 148.698 18.8326C148.646 18.7867 148.603 18.7306 148.573 18.6676C148.542 18.5961 148.527 18.5183 148.529 18.44V16.2057H148.115V15.9715H148.53V14.9565H148.813V15.9715H149.753V16.2057H148.813V18.3773C148.81 18.4246 148.818 18.472 148.837 18.5153C148.856 18.5587 148.885 18.5966 148.922 18.6259C148.996 18.6803 149.086 18.7092 149.177 18.7083C149.281 18.711 149.385 18.6907 149.48 18.6489C149.565 18.6094 149.617 18.583 149.636 18.572L149.722 18.7919Z"
                  fill="#5F5F5F"/>
            <path fill-rule="evenodd" clip-rule="evenodd"
                  d="M122.1 4.63802C122.008 4.94883 121.839 5.53125 121.593 6.38526H121.5C121.271 5.5789 121.104 4.99648 120.999 4.63802C120.844 4.11022 120.477 4.14321 120.353 4.1443H119.075V7.93677H120.315V5.70022H120.398L121.087 7.93677H122.016L122.705 5.70242H122.789V7.93677H124.024V4.1443H122.807C122.65 4.1443 122.257 4.10472 122.1 4.63802Z"
                  fill="white"/>
            <path fill-rule="evenodd" clip-rule="evenodd"
                  d="M127.727 5.71144H130.202C130.345 5.0099 129.853 4.14453 128.836 4.14453H126.193C126.255 4.98901 126.979 5.71144 127.727 5.71144Z"
                  fill="white"/>
            <path d="M125.811 4.14648H124.534V7.92576H125.811V4.14648Z" fill="white"/>
            <path fill-rule="evenodd" clip-rule="evenodd"
                  d="M129.374 6.71492C129.565 6.65778 129.74 6.55652 129.885 6.41925C130.03 6.28197 130.141 6.11248 130.21 5.92432H126.303V7.94975L127.556 7.95855V6.80948H128.065L128.768 7.97504H130.259C130.259 7.97504 129.619 7.036 129.374 6.71492Z"
                  fill="white"/>
        </g>
        <path d="M206.172 12.6566L206.616 12.7899C206.586 12.9158 206.542 13.0194 206.475 13.1009C206.409 13.1823 206.334 13.249 206.238 13.286C206.142 13.3304 206.023 13.3526 205.875 13.3526C205.698 13.3526 205.557 13.3304 205.439 13.2786C205.327 13.2268 205.231 13.1379 205.15 13.0046C205.068 12.8788 205.024 12.7085 205.024 12.5085C205.024 12.242 205.098 12.0347 205.239 11.8866C205.379 11.7385 205.587 11.6719 205.846 11.6719C206.053 11.6719 206.209 11.7163 206.327 11.7977C206.446 11.8792 206.534 12.0051 206.586 12.1828L206.142 12.279C206.127 12.2272 206.112 12.1902 206.09 12.168C206.061 12.1309 206.031 12.1013 205.986 12.0791C205.942 12.0569 205.898 12.0495 205.853 12.0495C205.742 12.0495 205.653 12.0939 205.594 12.1902C205.55 12.2568 205.527 12.3679 205.527 12.5085C205.527 12.6862 205.557 12.8121 205.609 12.8788C205.661 12.9454 205.742 12.9824 205.838 12.9824C205.935 12.9824 206.009 12.9528 206.053 12.901C206.112 12.8343 206.149 12.7603 206.172 12.6566Z"
              fill="#5F5F5F"/>
        <path d="M206.793 12.5081C206.793 12.2416 206.867 12.0343 207.016 11.8862C207.164 11.7381 207.371 11.6641 207.638 11.6641C207.911 11.6641 208.119 11.7381 208.267 11.8788C208.415 12.0269 208.489 12.2268 208.489 12.4933C208.489 12.6858 208.459 12.8413 208.393 12.9598C208.326 13.0783 208.237 13.1745 208.111 13.2412C207.993 13.3078 207.837 13.3448 207.66 13.3448C207.475 13.3448 207.327 13.3152 207.201 13.256C207.082 13.1967 206.986 13.1079 206.905 12.9746C206.823 12.8413 206.793 12.7006 206.793 12.5081ZM207.297 12.5081C207.297 12.671 207.327 12.7895 207.386 12.8635C207.445 12.9376 207.526 12.9746 207.638 12.9746C207.749 12.9746 207.83 12.9376 207.889 12.8709C207.949 12.7969 207.978 12.671 207.978 12.4933C207.978 12.3378 207.949 12.2268 207.882 12.1601C207.823 12.0861 207.734 12.0565 207.63 12.0565C207.526 12.0565 207.445 12.0935 207.386 12.1675C207.327 12.2268 207.297 12.3452 207.297 12.5081Z"
              fill="#5F5F5F"/>
        <path d="M208.748 11.6943H209.407L209.659 12.6865L209.911 11.6943H210.57V13.3233H210.155V12.0794L209.837 13.3233H209.466L209.148 12.0794V13.3233H208.733V11.6943H208.748Z"
              fill="#5F5F5F"/>
        <path d="M210.896 11.6943H211.732C211.917 11.6943 212.051 11.7388 212.139 11.8276C212.228 11.9165 212.273 12.0349 212.273 12.1978C212.273 12.3607 212.221 12.494 212.125 12.5828C212.028 12.6791 211.873 12.7235 211.673 12.7235H211.399V13.3307H210.896V11.6943ZM211.399 12.3903H211.525C211.621 12.3903 211.688 12.3755 211.732 12.3385C211.769 12.3015 211.791 12.2645 211.791 12.2126C211.791 12.1608 211.777 12.1164 211.74 12.0794C211.703 12.0423 211.643 12.0275 211.547 12.0275H211.406V12.3903H211.399Z"
              fill="#5F5F5F"/>
        <path d="M212.54 11.6943H213.043V12.9234H213.828V13.3233H212.54V11.6943Z" fill="#5F5F5F"/>
        <path d="M214.079 11.6943H214.583V13.3233H214.079V11.6943Z" fill="#5F5F5F"/>
        <path d="M215.945 13.0489H215.375L215.294 13.3154H214.783L215.397 11.6865H215.945L216.56 13.3154H216.034L215.945 13.0489ZM215.842 12.7009L215.664 12.116L215.486 12.7009H215.842Z"
              fill="#5F5F5F"/>
        <path d="M216.715 11.6943H217.182L217.796 12.5976V11.6943H218.27V13.3233H217.796L217.189 12.4273V13.3233H216.715V11.6943Z"
              fill="#5F5F5F"/>
        <path d="M218.492 11.6943H220.025V12.0942H219.514V13.3233H219.01V12.0942H218.5V11.6943H218.492Z"
              fill="#5F5F5F"/>
        <path d="M200.115 14.1729L201.574 13.7139L201.1 12.6625C200.752 13.0993 200.404 13.662 200.115 14.1729ZM199.619 9.36759L196.761 3L175.837 4.18467L181.634 20L192.792 16.483C192.082 15.4612 191.823 14.247 192.644 13.6546C193.563 12.9882 194.947 13.7583 195.828 14.8467C196.68 13.4251 199.071 10.1154 199.619 9.36759Z"
              fill="#5F5F5F"/>
        <path d="M196.109 7.60164C196.983 7.60164 197.694 6.93526 197.694 6.106C197.694 5.27673 196.983 4.61035 196.109 4.61035C195.236 4.61035 194.525 5.27673 194.525 6.106C194.525 6.92786 195.236 7.60164 196.109 7.60164ZM194.814 8.24581H197.405V15.0206H194.814V8.24581Z"
              fill="#FEFEFE"/>
        <path d="M193.533 10.2219C193.555 10.2293 193.57 10.2219 193.57 10.1996V8.48187C193.57 8.45966 193.555 8.43744 193.533 8.42264C193.533 8.42264 193.193 8.20051 192.156 8.14128C192.104 8.11166 191.193 8.10426 190.949 8.14128C187.173 8.44485 187.032 11.177 187.032 11.2955V11.9618C187.032 12.0433 187.032 14.8347 190.949 15.079C191.334 15.1086 192.082 15.079 192.156 15.079C193.059 15.079 193.681 14.805 193.681 14.805C193.703 14.7976 193.718 14.7754 193.718 14.7532V13.1465C193.718 13.1243 193.703 13.1169 193.689 13.1317C193.689 13.1317 193.407 13.3538 192.178 13.4797C191.83 13.5167 191.66 13.5019 191.534 13.4797C189.787 13.1835 189.705 11.91 189.705 11.91C189.705 11.8878 189.698 11.8508 189.698 11.836V11.3473C189.698 11.3251 189.698 11.2881 189.705 11.2732C189.705 11.2732 189.824 9.90347 191.534 9.75539H192.178C192.926 9.85164 193.533 10.2219 193.533 10.2219Z"
              fill="#FEFEFE"/>
        <path d="M179.835 14.9992C179.835 15.0214 179.85 15.0362 179.872 15.0362H182.397C182.419 15.0362 182.434 15.0214 182.434 14.9992V13.0297C182.434 13.0075 182.449 12.9927 182.471 12.9927C182.471 12.9927 186.506 13.2814 186.506 10.5789C186.506 8.4391 183.974 8.20957 183.145 8.2466C183.13 8.2466 179.872 8.2466 179.872 8.2466C179.85 8.2466 179.835 8.2614 179.835 8.28362V14.9992ZM182.389 11.4896V9.72003H183.011C183.011 9.72003 183.907 9.75705 183.981 10.3716C183.996 10.416 183.996 10.7196 183.981 10.7344C183.863 11.4526 183.085 11.4896 183.085 11.4896H182.389Z"
              fill="#FEFEFE"/>
        <path d="M196.184 18.2891C196.392 18.2891 196.555 18.2891 196.821 18.1706C197.739 17.6894 200.842 10.1149 204.114 7.78257C204.137 7.76776 204.159 7.74555 204.174 7.72334C204.196 7.69372 204.196 7.66411 204.196 7.66411C204.196 7.66411 204.196 7.50862 203.715 7.50862C200.805 7.42717 197.776 13.5356 196.184 15.9494C196.162 15.979 196.059 15.9494 196.059 15.9494C196.059 15.9494 194.992 14.6907 194.067 14.2094C194.045 14.202 193.941 14.165 193.83 14.1724C193.756 14.1724 193.326 14.2612 193.127 14.4685C192.89 14.7203 192.897 14.861 192.897 15.1645C192.897 15.1868 192.912 15.2904 192.941 15.3422C193.171 15.7421 194.2 17.1637 195.052 17.9485C195.177 18.0448 195.377 18.2891 196.184 18.2891Z"
              fill="#5F5F5F"/>
        <path d="M204.973 5.49609H207.394C207.875 5.49609 208.26 5.56273 208.549 5.6886C208.845 5.82188 209.089 6.00698 209.274 6.24392C209.467 6.48825 209.608 6.76961 209.689 7.08799C209.778 7.40637 209.822 7.74696 209.822 8.10977C209.822 8.67249 209.756 9.10933 209.63 9.42031C209.504 9.73129 209.326 9.99043 209.097 10.2052C208.867 10.4125 208.623 10.5531 208.364 10.6272C208.008 10.7234 207.683 10.7679 207.394 10.7679H204.973V5.49609ZM206.602 6.68817V9.56839H207.001C207.342 9.56839 207.586 9.53137 207.727 9.45733C207.868 9.38329 207.986 9.25001 208.068 9.06491C208.149 8.87981 208.193 8.56883 208.193 8.14679C208.193 7.58407 208.105 7.20646 207.92 6.99914C207.734 6.79182 207.438 6.68817 207.009 6.68817H206.602Z"
              fill="#5F5F5F"/>
        <path d="M210.274 9.02746L211.829 8.93121C211.866 9.18295 211.932 9.37546 212.036 9.50874C212.206 9.72346 212.443 9.82711 212.754 9.82711C212.984 9.82711 213.169 9.77528 213.295 9.66422C213.421 9.55316 213.487 9.42729 213.487 9.28661C213.487 9.15334 213.428 9.02746 213.31 8.9164C213.191 8.80534 212.91 8.70908 212.473 8.61283C211.755 8.44994 211.251 8.23522 210.94 7.96866C210.629 7.70211 210.481 7.36152 210.481 6.94689C210.481 6.67293 210.563 6.42119 210.718 6.17685C210.874 5.93252 211.111 5.74741 211.429 5.60673C211.747 5.46605 212.177 5.39941 212.725 5.39941C213.398 5.39941 213.917 5.52529 214.265 5.77703C214.62 6.02877 214.827 6.4286 214.894 6.9765L213.354 7.06536C213.31 6.82842 213.228 6.65813 213.095 6.54706C212.962 6.436 212.784 6.38417 212.554 6.38417C212.362 6.38417 212.221 6.42119 212.125 6.50264C212.029 6.58408 211.984 6.68034 211.984 6.7988C211.984 6.88025 212.021 6.9617 212.103 7.02834C212.177 7.09497 212.362 7.16161 212.651 7.22084C213.361 7.37633 213.872 7.53182 214.183 7.68731C214.494 7.84279 214.716 8.04271 214.857 8.27224C214.998 8.50177 215.064 8.76832 215.064 9.05708C215.064 9.39767 214.968 9.70865 214.783 9.99001C214.598 10.2788 214.331 10.4935 213.998 10.6416C213.665 10.7897 213.236 10.8637 212.725 10.8637C211.829 10.8637 211.207 10.6934 210.859 10.3454C210.518 9.99741 210.326 9.56056 210.274 9.02746Z"
              fill="#5F5F5F"/>
        <path d="M215.479 9.02746L217.034 8.93121C217.071 9.18295 217.138 9.37546 217.241 9.50874C217.411 9.72346 217.648 9.82711 217.959 9.82711C218.189 9.82711 218.374 9.77528 218.5 9.66422C218.626 9.55316 218.692 9.42729 218.692 9.28661C218.692 9.15334 218.633 9.02746 218.515 8.9164C218.396 8.80534 218.115 8.70908 217.678 8.61283C216.96 8.44994 216.456 8.23522 216.145 7.96866C215.842 7.70211 215.686 7.36152 215.686 6.94689C215.686 6.67293 215.768 6.42119 215.923 6.17685C216.079 5.93252 216.316 5.74741 216.634 5.60673C216.952 5.46605 217.382 5.39941 217.93 5.39941C218.604 5.39941 219.122 5.52529 219.47 5.77703C219.825 6.02877 220.033 6.4286 220.099 6.9765L218.559 7.06536C218.515 6.82842 218.433 6.65813 218.3 6.54706C218.167 6.436 217.989 6.38417 217.759 6.38417C217.567 6.38417 217.426 6.42119 217.33 6.50264C217.234 6.58408 217.189 6.68034 217.189 6.7988C217.189 6.88025 217.226 6.9617 217.308 7.02834C217.382 7.09497 217.567 7.16161 217.856 7.22084C218.567 7.37633 219.077 7.53182 219.388 7.68731C219.699 7.84279 219.922 8.04271 220.062 8.27224C220.203 8.50177 220.27 8.76832 220.27 9.05708C220.27 9.39767 220.173 9.70865 219.988 9.99001C219.803 10.2788 219.536 10.4935 219.203 10.6416C218.87 10.7897 218.441 10.8637 217.93 10.8637C217.034 10.8637 216.412 10.6934 216.064 10.3454C215.716 9.99741 215.523 9.56056 215.479 9.02746Z"
              fill="#5F5F5F"/>
    </g>
    <defs>
        <clipPath id="clip0_56_6397">
            <rect width="13.3586" height="2.78788" fill="white" transform="translate(4.7627 15.7979)"/>
        </clipPath>
        <clipPath id="clip1_56_6397">
            <rect width="48" height="23" fill="white" transform="translate(107.837)"/>
        </clipPath>
    </defs>
</svg>
